<?xml version="1.0" encoding="UTF-8"?>
<svg width="120px" height="120px" viewBox="0 0 120 120" version="1.1" xmlns="http://www.w3.org/2000/svg" xmlns:xlink="http://www.w3.org/1999/xlink">
    <!-- Generator: Sketch 49.3 (51167) - http://www.bohemiancoding.com/sketch -->
    <title>Figma Logo</title>
    <defs>
        <rect id="path-1" x="0" y="0" width="120" height="120"></rect>
    </defs>
    <g id="Home" stroke="none" stroke-width="1" fill="none" fill-rule="evenodd">
        <g id="Style-Guide---Homepage" transform="translate(-180.000000, -2007.000000)">
            <g id="Group-29" transform="translate(180.000000, 2007.000000) scale(2)">
                <g id="--Marketing/Logos/Sprocket" transform="translate(18.000000, 0.000000)" fill="#FF7A59">
                    <path fill="#1abcfe" d="M19 28.5a9.5 9.5 0 1 1 19 0 9.5 9.5 0 0 1-19 0z"></path><path fill="#0acf83" d="M0 47.5A9.5 9.5 0 0 1 9.5 38H19v9.5a9.5 9.5 0 1 1-19 0z"></path><path fill="#ff7262" d="M19 0v19h9.5a9.5 9.5 0 1 0 0-19H19z"></path><path fill="#f24e1e" d="M0 9.5A9.5 9.5 0 0 0 9.5 19H19V0H9.5A9.5 9.5 0 0 0 0 9.5z"></path><path fill="#a259ff" d="M0 28.5A9.5 9.5 0 0 0 9.5 38H19V19H9.5A9.5 9.5 0 0 0 0 28.5z"></path>
                </g>
            </g>
        </g>
    </g>
</svg>
