<svg width="140" height="25" viewBox="0 0 140 25" fill="none" xmlns="http://www.w3.org/2000/svg">
<path fill-rule="evenodd" clip-rule="evenodd" d="M50.444 24.0259C55.4456 24.0259 59.5002 19.977 59.5002 14.9824C59.5002 11.5256 55.4456 5.93884 50.444 5.93884C45.4423 5.93884 41.3877 9.98777 41.3877 14.9824C41.3877 19.977 45.4423 24.0259 50.444 24.0259ZM50.3737 20.6608C53.4755 20.6608 55.99 18.1498 55.99 15.0524C55.99 11.955 53.4755 9.44402 50.3737 9.44402C47.272 9.44402 44.7575 11.955 44.7575 15.0524C44.7575 18.1498 47.272 20.6608 50.3737 20.6608Z" fill="white"/>
<path d="M55.9897 3.89262C55.9897 1.954 57.5613 0.382446 59.4999 0.382446V0.382446V14.9643H55.9897V3.89262Z" fill="white"/>
<path d="M77.9087 20.1651C77.9087 22.1037 79.4803 23.6753 81.4189 23.6753V23.6753V14.7019H77.9087V20.1651Z" fill="white"/>
<path fill-rule="evenodd" clip-rule="evenodd" d="M72.3629 24.0249C77.3645 24.0249 81.4192 19.976 81.4192 14.9814C81.4192 9.98679 77.3645 5.93787 72.3629 5.93787C67.3613 5.93787 63.3066 9.98679 63.3066 14.9814C63.3066 19.976 67.3613 24.0249 72.3629 24.0249ZM72.2923 20.6607C75.3941 20.6607 77.9085 18.1497 77.9085 15.0523C77.9085 11.9549 75.3941 9.44393 72.2923 9.44393C69.1905 9.44393 66.676 11.9549 66.676 15.0523C66.676 18.1497 69.1905 20.6607 72.2923 20.6607Z" fill="white"/>
<path d="M139.858 13.8685H136.348V23.6811H139.858V13.8685Z" fill="white"/>
<path fill-rule="evenodd" clip-rule="evenodd" d="M139.858 13.7979C139.858 13.8215 139.858 13.8451 139.858 13.8686H136.347C136.348 13.8451 136.348 13.8215 136.348 13.7979C136.348 11.4176 134.431 9.488 132.066 9.488C129.7 9.488 127.783 11.4176 127.783 13.7979C127.783 13.8215 127.783 13.8451 127.784 13.8686H124.273C124.273 13.8451 124.273 13.8215 124.273 13.7979C124.273 11.0043 127.762 5.9552 132.066 5.9552C136.369 5.9552 139.858 9.46648 139.858 13.7979Z" fill="white"/>
<path d="M127.783 9.3947C127.783 7.45608 126.212 5.88452 124.273 5.88452V5.88452V23.6796H127.783V9.3947Z" fill="white"/>
<path d="M17.1561 10.5248L13.5433 11.4914C12.5132 10.2412 10.9519 9.25171 9.20404 9.25171C5.90975 9.25171 3.58776 11.9549 3.58776 15.0523C3.58776 18.1498 5.90975 20.8529 9.20404 20.8529C10.9924 20.8529 12.5855 19.8261 13.614 18.5256L17.1394 19.4689C15.5786 22.1914 12.6411 24.0258 9.27452 24.0258C4.27289 24.0258 0.218262 19.9768 0.218262 14.9822C0.218262 9.98764 4.27288 5.93872 9.27452 5.93872C12.6531 5.93872 15.5996 7.78623 17.1561 10.5248Z" fill="white"/>
<path fill-rule="evenodd" clip-rule="evenodd" d="M29.0773 24.0258C34.0789 24.0258 38.1335 19.9768 38.1335 14.9822C38.1335 9.98764 34.0789 5.93872 29.0773 5.93872C24.0756 5.93872 20.021 9.98764 20.021 14.9822C20.021 19.9768 24.0756 24.0258 29.0773 24.0258ZM29.0068 20.8529C32.3011 20.8529 34.6231 18.1498 34.6231 15.0523C34.6231 11.9549 32.3011 9.25171 29.0068 9.25171C25.7125 9.25171 23.3905 11.9549 23.3905 15.0523C23.3905 18.1498 25.7125 20.8529 29.0068 20.8529Z" fill="white"/>
<path fill-rule="evenodd" clip-rule="evenodd" d="M120.565 16.0491C120.676 15.4812 120.565 15.6011 120.565 15.0005C120.565 9.99689 116.503 5.94067 111.492 5.94067C106.481 5.94067 102.419 9.99689 102.419 15.0005C102.419 20.0041 106.481 24.0603 111.492 24.0603C114.881 24.0603 117.837 22.2044 119.394 19.4547L115.87 18.5117C114.84 19.8364 113.231 20.689 111.422 20.689C108.902 20.689 106.475 19.0287 106.037 16.0491H120.565ZM106.037 13.4367C106.738 11.1306 108.883 9.45205 111.422 9.45205C113.96 9.45205 116.106 11.1306 116.807 13.4367H106.037Z" fill="white"/>
<path d="M85.2637 21.8563L94.2592 9.79308H88.7689C86.833 9.79308 85.2637 8.22373 85.2637 6.28784V6.28784H99.8455V8.03673L90.7998 20.1696H96.3402C98.2761 20.1696 99.8455 21.739 99.8455 23.6749V23.6749H85.2637V21.8563Z" fill="white"/>
</svg>
