<svg width="41" height="41" viewBox="0 0 41 41" fill="none" xmlns="http://www.w3.org/2000/svg">
<g clip-path="url(#clip0)">
<path d="M34.4941 23.071L36.1123 23.5046C36.1872 23.2757 36.2583 23.0447 36.3255 22.8119C36.3621 22.685 36.3976 22.5576 36.4319 22.4293C38.7358 13.8313 35.1684 5.04367 28.1876 0.322583C27.3613 -0.236255 26.2674 0.232957 26.0092 1.19652L24.6954 6.09943C31.7935 8.43625 36.0192 15.7555 34.4941 23.071Z" fill="white"/>
<circle cx="27.3442" cy="1.3606" r="1.33199" transform="rotate(15 27.3442 1.3606)" fill="white"/>
<path d="M5.66359 17.0873L4.04538 16.6537C3.97055 16.8826 3.89944 17.1136 3.83222 17.3465C3.79561 17.4733 3.76015 17.6007 3.72578 17.729C1.42196 26.327 4.98929 35.1147 11.9701 39.8357C12.7964 40.3946 13.8904 39.9254 14.1485 38.9618L15.4623 34.0589C8.3642 31.7221 4.13855 24.4028 5.66359 17.0873Z" fill="white"/>
<circle cx="12.8135" cy="38.7977" r="1.33199" transform="rotate(-165 12.8135 38.7977)" fill="white"/>
<path d="M23.0708 5.66371L23.5044 4.0455C23.2755 3.97067 23.0445 3.89956 22.8116 3.83234C22.6848 3.79573 22.5573 3.76027 22.429 3.7259C13.8311 1.42208 5.04342 4.98941 0.322338 11.9702C-0.236499 12.7966 0.232713 13.8905 1.19628 14.1487L6.09919 15.4624C8.43601 8.36432 15.7553 4.13867 23.0708 5.66371Z" fill="white"/>
<circle cx="1.36035" cy="12.8136" r="1.33199" transform="rotate(-75 1.36035 12.8136)" fill="white"/>
<path d="M17.0869 34.4945L16.6533 36.1127C16.8822 36.1875 17.1132 36.2586 17.3461 36.3259C17.4729 36.3625 17.6004 36.3979 17.7287 36.4323C26.3266 38.7361 35.1143 35.1688 39.8354 28.188C40.3942 27.3616 39.925 26.2677 38.9614 26.0095L34.0585 24.6958C31.7217 31.7939 24.4025 36.0195 17.0869 34.4945Z" fill="white"/>
<circle cx="38.7974" cy="27.3446" r="1.33199" transform="rotate(105 38.7974 27.3446)" fill="white"/>
<path fill-rule="evenodd" clip-rule="evenodd" d="M21.6167 11.0898C17.2912 10.3139 13.0165 12.7819 11.5257 16.9159L19.4842 19.0483L21.6167 11.0898ZM11.1026 18.5444C10.4029 22.8226 12.8622 27.0227 16.9522 28.4978L19.0487 20.6735L11.1026 18.5444ZM18.5808 28.9209C22.8132 29.6132 26.9692 27.2137 28.4859 23.2022L20.6739 21.109L18.5808 28.9209ZM28.9337 21.5803L21.1094 19.4838L23.2386 11.5376C27.2936 13.0707 29.7014 17.3006 28.9337 21.5803Z" fill="white"/>
</g>
<defs>
<clipPath id="clip0">
<rect width="40.1759" height="40.1759" fill="white"/>
</clipPath>
</defs>
</svg>
